<mxfile host="app.diagrams.net" modified="2022-08-25T09:26:18.954Z" agent="5.0 (Macintosh; Intel Mac OS X 10_15_7) AppleWebKit/537.36 (KHTML, like Gecko) Chrome/104.0.0.0 Safari/537.36" etag="cpxWP9mOPxl3ZGQ04afx" version="20.2.6" type="github">
  <diagram id="lQuABRyxCO27hQp94kIl" name="第 1 页">
    <mxGraphModel dx="599" dy="1792" grid="1" gridSize="10" guides="1" tooltips="1" connect="1" arrows="1" fold="1" page="1" pageScale="1" pageWidth="827" pageHeight="1169" math="0" shadow="0">
      <root>
        <mxCell id="0" />
        <mxCell id="1" parent="0" />
        <mxCell id="_j-uI9a2RfMwDRiPRny_-4" style="edgeStyle=orthogonalEdgeStyle;rounded=0;orthogonalLoop=1;jettySize=auto;html=1;strokeColor=#3399FF;" edge="1" parent="1" source="_j-uI9a2RfMwDRiPRny_-1" target="_j-uI9a2RfMwDRiPRny_-2">
          <mxGeometry relative="1" as="geometry" />
        </mxCell>
        <mxCell id="_j-uI9a2RfMwDRiPRny_-5" style="edgeStyle=orthogonalEdgeStyle;rounded=0;orthogonalLoop=1;jettySize=auto;html=1;strokeColor=#3399FF;" edge="1" parent="1" source="_j-uI9a2RfMwDRiPRny_-1" target="_j-uI9a2RfMwDRiPRny_-3">
          <mxGeometry relative="1" as="geometry" />
        </mxCell>
        <mxCell id="_j-uI9a2RfMwDRiPRny_-1" value="信息通知" style="rounded=0;whiteSpace=wrap;html=1;fontSize=24;strokeColor=#97D077;" vertex="1" parent="1">
          <mxGeometry x="1290" y="-670" width="120" height="50" as="geometry" />
        </mxCell>
        <mxCell id="_j-uI9a2RfMwDRiPRny_-2" value="列表展示" style="rounded=0;whiteSpace=wrap;html=1;fontSize=24;strokeColor=#97D077;" vertex="1" parent="1">
          <mxGeometry x="1180" y="-550" width="120" height="50" as="geometry" />
        </mxCell>
        <mxCell id="_j-uI9a2RfMwDRiPRny_-3" value="查看详情" style="rounded=0;whiteSpace=wrap;html=1;fontSize=24;strokeColor=#97D077;" vertex="1" parent="1">
          <mxGeometry x="1390" y="-550" width="120" height="50" as="geometry" />
        </mxCell>
      </root>
    </mxGraphModel>
  </diagram>
</mxfile>
